Coordinates
version=1
nRows=8
nColumns=63
inDegrees=yes

Units are S.I. units (second, meters, Newtons, ...)
If the header above contains a line with 'inDegrees', this indicates whether rotational values are in degrees (yes) or radians (no).

endheader
time	pelvis_tilt	pelvis_list	pelvis_rotation	pelvis_tx	pelvis_ty	pelvis_tz	hip_flexion_r	hip_adduction_r	hip_rotation_r	knee_angle_r	knee_angle_r_beta	ankle_angle_r	subtalar_angle_r	mtp_angle_r	hip_flexion_l	hip_adduction_l	hip_rotation_l	knee_angle_l	knee_angle_l_beta	ankle_angle_l	subtalar_angle_l	mtp_angle_l	L5_S1_Flex_Ext	L5_S1_Lat_Bending	L5_S1_axial_rotation	L4_L5_Flex_Ext	L4_L5_Lat_Bending	L4_L5_axial_rotation	L3_L4_Flex_Ext	L3_L4_Lat_Bending	L3_L4_axial_rotation	L2_L3_Flex_Ext	L2_L3_Lat_Bending	L2_L3_axial_rotation	L1_L2_Flex_Ext	L1_L2_Lat_Bending	L1_L2_axial_rotation	L1_T12_Flex_Ext	L1_T12_Lat_Bending	L1_T12_axial_rotation	Abs_r3	Abs_r2	Abs_r1	Abs_t1	Abs_t2	neck_flexion	neck_bending	neck_rotation	arm_flex_r	arm_add_r	arm_rot_r	elbow_flex_r	pro_sup_r	wrist_flex_r	wrist_dev_r	arm_flex_l	arm_add_l	arm_rot_l	elbow_flex_l	pro_sup_l	wrist_flex_l	wrist_dev_l
      2.43333333	      1.83486863	     -9.41054004	     90.45167633	      0.19913597	      0.66154804	      0.61965921	      8.99105273	      3.37657510	     -2.98333258	      4.17289801	      0.07283081	     19.69203893	     -2.97604929	      0.00000000	      9.61439240	     -3.65237516	     -1.28425720	      3.45843538	      0.06036108	     25.11108757	      4.04374006	      0.00000000	     -0.02549823	      0.57716600	     -1.65648203	     -0.04735276	      0.76763078	     -1.76001216	     -0.04189104	      1.40332141	     -1.76001216	     -0.02914193	      1.40332141	     -1.44942178	     -0.02367766	      1.17695691	     -1.34589165	     -0.01456969	      0.89403013	     -1.24236152	     -0.18213131	      6.52901723	     -9.21285611	      0.00000000	      0.00000000	     21.37027585	     -4.17021535	      9.44541853	      5.91104210	    -12.57492929	     37.40542949	     29.36741996	     75.85836654	     -6.51429223	      0.91767129	      2.43922679	    -15.41406331	     36.76113301	     37.04554123	     88.30304072	    -17.09367535	     -1.09795061
      2.45000000	      1.81650886	     -9.36913670	     90.42137781	      0.19930520	      0.66164436	      0.61941525	      8.87718924	      3.41239544	     -2.17033724	      4.07194190	      0.07106879	     19.44185011	     -4.12544170	      0.00000000	      9.50613233	     -3.61880111	     -0.46908896	      3.34884201	      0.05844832	     24.91280634	      2.92184234	      0.00000000	     -0.02088975	      0.56833827	     -1.62253671	     -0.03879435	      0.75588991	     -1.72394525	     -0.03431977	      1.38185768	     -1.72394525	     -0.02387490	      1.38185768	     -1.41971962	     -0.01939822	      1.15895541	     -1.31831107	     -0.01193640	      0.88035599	     -1.21690253	     -0.14921339	      6.42915623	     -9.02406240	      0.00000000	      0.00000000	     21.00682102	     -4.04934615	     10.01594890	      5.42944528	    -12.37660978	     35.04025564	     29.84774676	     79.07975174	     -6.09503268	      0.91022185	      2.64228843	    -15.47092013	     37.32794970	     36.87735826	     88.29087164	    -17.66105729	     -1.67851998
      2.46666667	      1.80007769	     -9.33020845	     90.43813930	      0.19941588	      0.66178346	      0.61938757	      8.83609840	      3.40607306	     -2.25109778	      4.06126418	      0.07088243	     19.41541891	     -4.12034359	      0.00000000	      9.46330694	     -3.61402469	     -0.56204759	      3.30926626	      0.05775759	     24.96254481	      3.10443804	      0.00000000	     -0.01982227	      0.55948675	     -1.64196379	     -0.03681194	      0.74411737	     -1.74458653	     -0.03256601	      1.36033608	     -1.74458653	     -0.02265487	      1.36033608	     -1.43671832	     -0.01840696	      1.14090538	     -1.33409558	     -0.01132645	      0.86664497	     -1.23147284	     -0.14158850	      6.32902599	     -9.13211001	      0.00000000	      0.00000000	     20.43663374	     -3.75391697	     11.05952853	      5.45798235	    -12.38427571	     35.11088552	     30.04533691	     79.90200169	     -6.19891877	      0.13551307	      2.62519187	    -15.48445165	     37.15624558	     36.74937965	     88.28064040	    -17.72524500	     -2.01892109
      2.48333333	      1.84438919	     -9.28824856	     90.39836676	      0.19958604	      0.66193449	      0.61947471	      8.85437231	      3.44179962	     -2.88672455	      4.11428007	      0.07180773	     19.71217714	     -3.23407786	      0.00000000	      9.45340677	     -3.69353851	     -1.08983467	      3.31957821	      0.05793757	     25.15018510	      3.74816909	      0.00000000	     -0.02348238	      0.55822916	     -1.65769362	     -0.04360913	      0.74244479	     -1.76129947	     -0.03857920	      1.35727839	     -1.76129947	     -0.02683801	      1.35727839	     -1.45048192	     -0.02180574	      1.13834091	     -1.34687607	     -0.01341783	      0.86469697	     -1.24327022	     -0.16773230	      6.31479994	     -9.21959461	      0.00000000	      0.00000000	     19.70549553	     -3.30362024	     12.34495625	      5.61706389	    -12.50261973	     35.89278552	     30.21289734	     79.76684274	     -6.47212086	     -0.72000948	      2.70716308	    -15.44347562	     37.29940941	     36.42046586	     88.24676688	    -18.17642462	     -2.48231692
      2.50000000	      1.86748379	     -9.33141513	     90.35406150	      0.19975885	      0.66192828	      0.61946295	      8.95436959	      3.46214281	     -3.44135315	      4.11780702	      0.07186929	     19.84164105	     -2.62071941	      0.00000000	      9.47938499	     -3.71692431	     -0.55624078	      3.22011052	      0.05620153	     25.03339045	      2.97041058	      0.00000000	     -0.01844470	      0.55409643	     -1.64549994	     -0.03425364	      0.73694825	     -1.74834368	     -0.03030279	      1.34723005	     -1.74834368	     -0.02108044	      1.34723005	     -1.43981244	     -0.01712774	      1.12991343	     -1.33696870	     -0.01053930	      0.85829536	     -1.23412495	     -0.13174861	      6.26804959	     -9.15177700	      0.00000000	      0.00000000	     19.16272934	     -2.94146461	     13.49153523	      5.47242562	    -12.52232894	     35.33198609	     30.57037564	     80.70613448	     -6.27806559	     -1.03834356	      2.88528823	    -15.48280603	     37.79309478	     36.22852627	     88.21328812	    -18.76511130	     -2.73049942
      2.51666667	      1.80961387	     -9.37654133	     90.16787424	      0.20006908	      0.66184665	      0.61946061	      9.09221220	      3.38530237	     -4.50160261	      4.18543745	      0.07304966	     20.41120860	     -1.03590599	      0.00000000	      9.50561903	     -3.68894124	     -1.00750404	      3.17181332	      0.05535859	     25.15868834	      3.25508426	      0.00000000	     -0.01792262	      0.53901244	     -1.60487535	     -0.03328410	      0.71688655	     -1.70518005	     -0.02944508	      1.31055485	     -1.70518005	     -0.02048376	      1.31055485	     -1.40426593	     -0.01664295	      1.09915417	     -1.30396122	     -0.01024099	      0.83493027	     -1.20365651	     -0.12801950	      6.09741653	     -8.92583521	      0.00000000	      0.00000000	     18.65518824	     -2.37427745	     14.32513590	      5.62618209	    -12.64899453	     36.29400786	     30.60220856	     79.74627226	     -6.33866476	     -1.62711981	      3.07148603	    -15.49442567	     38.22288972	     36.01355005	     88.18724210	    -19.63617692	     -3.13503048
      2.53333333	      1.83428585	     -9.48770993	     90.22126617	      0.20008364	      0.66155324	      0.61923007	      9.18957102	      3.40632165	     -4.82139521	      4.05541230	      0.07078030	     20.62433918	     -0.81665754	      0.00000000	      9.63351202	     -3.69685885	     -0.75662556	      3.17526638	      0.05541885	     25.20605642	      2.91982840	      0.00000000	     -0.01095810	      0.53465597	     -1.55132832	     -0.02035028	      0.71109244	     -1.64828634	     -0.01800306	      1.29996253	     -1.64828634	     -0.01252401	      1.29996253	     -1.35741228	     -0.01017569	      1.09027046	     -1.26045426	     -0.00626146	      0.82818210	     -1.16349624	     -0.07827259	      6.04813529	     -8.62802272	      0.00000000	      0.00000000	     18.48304948	     -1.93417151	     14.70259120	      5.05949387	    -12.61564542	     34.20116019	     31.27322144	     80.85856681	     -5.42810838	     -0.68512881	      3.43167443	    -15.48784432	     39.09745292	     35.79983618	     88.18011739	    -20.41089365	     -3.38550099
      2.55000000	      1.80138198	     -9.59434199	     90.15857165	      0.20017213	      0.66127648	      0.61889406	      9.30884221	      3.35777323	     -5.27293173	      4.02719050	      0.07028773	     20.91623702	     -0.16842534	      0.00000000	      9.69283042	     -3.64211219	     -0.34975477	      3.14533897	      0.05489652	     25.09512774	      2.13744748	      0.00000000	     -0.00561133	      0.52231461	     -1.48156454	     -0.01042079	      0.69467843	     -1.57416232	     -0.00921885	      1.26995574	     -1.57416232	     -0.00641318	      1.26995574	     -1.29636897	     -0.00521068	      1.06510395	     -1.20377119	     -0.00320631	      0.80906533	     -1.11117340	     -0.04008113	      5.90852733	     -8.24001749	      0.00000000	      0.00000000	     18.55137115	     -1.59371926	     14.54260725	      4.90539213	    -12.76278124	     34.14306622	     31.56084304	     79.94451020	     -4.95281823	     -0.04318140	      3.66425151	    -15.50962271	     39.72906685	     35.74156688	     88.18823663	    -21.07356262	     -3.39357212
